<?xml version="1.0" encoding="utf-8"?>
<!-- Generator: Adobe Illustrator 16.0.0, SVG Export Plug-In . SVG Version: 6.00 Build 0)  -->
<!DOCTYPE svg PUBLIC "-//W3C//DTD SVG 1.1//EN" "http://www.w3.org/Graphics/SVG/1.1/DTD/svg11.dtd">
<svg version="1.1" xmlns="http://www.w3.org/2000/svg" xmlns:xlink="http://www.w3.org/1999/xlink" x="0px" y="0px" width="600px"
	 height="600px" viewBox="0 0 600 600" style="enable-background:new 0 0 600 600;" xml:space="preserve">
<style type="text/css">
<![CDATA[
	.st0{fill:#2388E2;}
	.st1{fill:#2ED4E5;}
	.st2{fill:#FF83D0;}
	.st3{fill:#FFFFFF;}
	.st4{fill:#CAF9F9;}
	.st5{fill:#41E7EF;}
]]>
</style>
<g id="Layer_1">
	<circle class="st5" cx="299.9" cy="298.8" r="294.7"/>
	<circle class="st1" cx="299.9" cy="298.8" r="284.9"/>
	<circle class="st4" cx="298.7" cy="298.8" r="255.7"/>
	<path class="st2" d="M298.8,95c-1.4,0-2.5-1.1-2.5-2.5v-32c0-1.4,1.1-2.5,2.5-2.5s2.5,1.1,2.5,2.5v32C301.2,93.9,300.1,95,298.8,95
		z"/>
	<path class="st2" d="M298.8,538.4c-1.4,0-2.5-1.1-2.5-2.5v-32c0-1.4,1.1-2.5,2.5-2.5s2.5,1.1,2.5,2.5v32
		C301.2,537.3,300.1,538.4,298.8,538.4z"/>
	<path class="st2" d="M94.4,304.4H63.6c-1.4,0-2.5-1.1-2.5-2.5s1.1-2.5,2.5-2.5h30.8c1.4,0,2.5,1.1,2.5,2.5S95.7,304.4,94.4,304.4z"
		/>
	<path class="st2" d="M536.5,304.4h-30.8c-1.4,0-2.5-1.1-2.5-2.5s1.1-2.5,2.5-2.5h30.8c1.4,0,2.5,1.1,2.5,2.5
		S537.8,304.4,536.5,304.4z"/>
	<path class="st2" d="M410.4,127.4c-0.4,0-0.9-0.1-1.3-0.3c-1.2-0.7-1.6-2.2-0.9-3.4l16.3-27.5c0.7-1.2,2.2-1.6,3.4-0.9
		c1.2,0.7,1.6,2.2,0.9,3.4l-16.3,27.5C412,126.9,411.2,127.4,410.4,127.4z"/>
	<path class="st2" d="M478.9,200.8c-0.9,0-1.8-0.5-2.2-1.3c-0.6-1.2-0.2-2.7,1.1-3.3l28.4-14.7c1.2-0.6,2.7-0.2,3.3,1.1
		c0.6,1.2,0.2,2.7-1.1,3.3L480,200.6C479.7,200.7,479.3,200.8,478.9,200.8z"/>
	<path class="st2" d="M189,127.4c-0.8,0-1.7-0.4-2.1-1.2l-16.3-27.5c-0.7-1.2-0.3-2.7,0.9-3.4c1.2-0.7,2.7-0.3,3.4,0.9l16.3,27.5
		c0.7,1.2,0.3,2.7-0.9,3.4C189.9,127.2,189.5,127.4,189,127.4z"/>
	<path class="st2" d="M120.5,200.8c-0.4,0-0.8-0.1-1.1-0.3L91,185.9c-1.2-0.6-1.7-2.1-1.1-3.3c0.6-1.2,2.1-1.7,3.3-1.1l28.4,14.7
		c1.2,0.6,1.7,2.1,1.1,3.3C122.3,200.4,121.4,200.8,120.5,200.8z"/>
	<path class="st2" d="M426.7,500.4c-0.8,0-1.7-0.4-2.1-1.2l-16.3-27.5c-0.7-1.2-0.3-2.7,0.9-3.4c1.2-0.7,2.7-0.3,3.4,0.9l16.3,27.5
		c0.7,1.2,0.3,2.7-0.9,3.4C427.5,500.3,427.1,500.4,426.7,500.4z"/>
	<path class="st2" d="M507.3,414.1c-0.4,0-0.8-0.1-1.1-0.3l-28.4-14.7c-1.2-0.6-1.7-2.1-1.1-3.3c0.6-1.2,2.1-1.7,3.3-1.1l28.4,14.7
		c1.2,0.6,1.7,2.1,1.1,3.3C509,413.6,508.2,414.1,507.3,414.1z"/>
	<path class="st2" d="M172.8,500.4c-0.4,0-0.9-0.1-1.3-0.3c-1.2-0.7-1.6-2.2-0.9-3.4l16.3-27.5c0.7-1.2,2.2-1.6,3.4-0.9
		c1.2,0.7,1.6,2.2,0.9,3.4l-16.3,27.5C174.4,500,173.6,500.4,172.8,500.4z"/>
	<path class="st2" d="M92.1,414.1c-0.9,0-1.8-0.5-2.2-1.3c-0.6-1.2-0.2-2.7,1.1-3.3l28.4-14.7c1.2-0.6,2.7-0.2,3.3,1.1
		c0.6,1.2,0.2,2.7-1.1,3.3l-28.4,14.7C92.9,414,92.5,414.1,92.1,414.1z"/>
	<rect x="290.2" y="116" class="st3" width="17.2" height="220.4"/>
	<rect x="261.8" y="289.6" class="st3" width="220.4" height="17.2"/>
	<path class="st0" d="M299.1,71.9c-1.4,0-2.5,1.1-2.5,2.5l-0.4,216.8c-3.4,1-5.9,4.2-5.9,7.9c0,3.7,2.5,6.8,5.9,7.8l0,19.6
		c0,1.4,1.1,2.5,2.5,2.5c0.7,0,1.2-0.3,1.7-0.7c0.5-0.4,0.8-1.1,0.8-1.8l0-19.7c3.3-1.1,5.6-4.2,5.6-7.8c0-3.6-2.3-6.6-5.6-7.7
		l0.4-216.9C301.6,73,300.5,71.9,299.1,71.9z"/>
</g>
<g id="Layer_2">
</g>
</svg>
